<?xml version="1.0" standalone="no"?>
<!DOCTYPE svg PUBLIC "-//W3C//DTD SVG 20010904//EN"
 "http://www.w3.org/TR/2001/REC-SVG-20010904/DTD/svg10.dtd">
<svg version="1.0" xmlns="http://www.w3.org/2000/svg"
 width="512.000000pt" height="512.000000pt" viewBox="0 0 512.000000 512.000000"
 preserveAspectRatio="xMidYMid meet">
<metadata>
Created by potrace 1.14, written by Peter Selinger 2001-2017
</metadata>
<g transform="translate(0.000000,512.000000) scale(0.100000,-0.100000)"
fill="#000000" stroke="none">
<path d="M0 2560 l0 -2560 2560 0 2560 0 0 2560 0 2560 -2560 0 -2560 0 0
-2560z m3880 1634 c6 -15 10 -172 10 -375 0 -294 -2 -355 -15 -379 l-16 -30
-844 0 -845 0 0 -210 0 -210 823 0 c452 0 827 -4 833 -8 31 -20 34 -54 34
-402 0 -295 -2 -356 -15 -380 l-15 -30 -828 -2 -827 -3 -3 -632 -2 -633 -465
0 -465 0 0 1660 0 1660 1315 0 1315 0 10 -26z"/>
</g>
</svg>
